<?xml version="1.0" encoding="UTF-8" standalone="no"?>
<!DOCTYPE svg PUBLIC "-//W3C//DTD SVG 1.1//EN"
 "http://www.w3.org/Graphics/SVG/1.1/DTD/svg11.dtd">
<!-- Generated by graphviz version 12.1.2 (0)
 -->
<!-- Title: binaryTree Pages: 1 -->
<svg width="665pt" height="581pt"
 viewBox="0.00 0.00 665.00 581.00" xmlns="http://www.w3.org/2000/svg" xmlns:xlink="http://www.w3.org/1999/xlink">
<g id="graph0" class="graph" transform="scale(1 1) rotate(0) translate(4 577)">
<title>binaryTree</title>
<polygon fill="white" stroke="none" points="-4,4 -4,-577 661,-577 661,4 -4,4"/>
<!-- p0x55a02093f2b0 -->
<g id="node1" class="node">
<title>p0x55a02093f2b0</title>
<path fill="none" stroke="gray" d="M280,-508C280,-508 480,-508 480,-508 486,-508 492,-514 492,-520 492,-520 492,-560.5 492,-560.5 492,-566.5 486,-572.5 480,-572.5 480,-572.5 280,-572.5 280,-572.5 274,-572.5 268,-566.5 268,-560.5 268,-560.5 268,-520 268,-520 268,-514 274,-508 280,-508"/>
<text text-anchor="middle" x="380" y="-559" font-family="JetBrains Mono" font-size="10.00">[0x55a02093f2b0]</text>
<polyline fill="none" stroke="gray" points="268,-551 492,-551"/>
<text text-anchor="middle" x="380" y="-537.5" font-family="JetBrains Mono" font-size="10.00">data = [100]</text>
<polyline fill="none" stroke="gray" points="268,-529.5 492,-529.5"/>
<text text-anchor="middle" x="324" y="-516" font-family="JetBrains Mono" font-size="10.00">[0x55a020940270]</text>
<polyline fill="none" stroke="gray" points="380,-508 380,-529.5"/>
<text text-anchor="middle" x="436" y="-516" font-family="JetBrains Mono" font-size="10.00">[0x55a02093ffd0]</text>
</g>
<!-- p0x55a020940270 -->
<g id="node2" class="node">
<title>p0x55a020940270</title>
<path fill="none" stroke="gray" d="M157,-406.5C157,-406.5 357,-406.5 357,-406.5 363,-406.5 369,-412.5 369,-418.5 369,-418.5 369,-459 369,-459 369,-465 363,-471 357,-471 357,-471 157,-471 157,-471 151,-471 145,-465 145,-459 145,-459 145,-418.5 145,-418.5 145,-412.5 151,-406.5 157,-406.5"/>
<text text-anchor="middle" x="257" y="-457.5" font-family="JetBrains Mono" font-size="10.00">[0x55a020940270]</text>
<polyline fill="none" stroke="gray" points="145,-449.5 369,-449.5"/>
<text text-anchor="middle" x="257" y="-436" font-family="JetBrains Mono" font-size="10.00">data = [12]</text>
<polyline fill="none" stroke="gray" points="145,-428 369,-428"/>
<text text-anchor="middle" x="201" y="-414.5" font-family="JetBrains Mono" font-size="10.00">[0x55a0209413c0]</text>
<polyline fill="none" stroke="gray" points="257,-406.5 257,-428"/>
<text text-anchor="middle" x="313" y="-414.5" font-family="JetBrains Mono" font-size="10.00">[0x55a020940a50]</text>
</g>
<!-- p0x55a02093f2b0&#45;&gt;p0x55a020940270 -->
<g id="edge1" class="edge">
<title>p0x55a02093f2b0:l&#45;&gt;p0x55a020940270</title>
<path fill="none" stroke="green" stroke-width="2" stroke-dasharray="5,2" d="M318.5,-507.63C318.5,-507.63 318.5,-478.22 318.5,-478.22"/>
<polygon fill="green" stroke="green" stroke-width="2" points="319.9,-478.22 318.5,-474.22 317.1,-478.22 319.9,-478.22"/>
</g>
<!-- p0x55a02093ffd0 -->
<g id="node8" class="node">
<title>p0x55a02093ffd0</title>
<path fill="none" stroke="gray" d="M431,-406.5C431,-406.5 577,-406.5 577,-406.5 583,-406.5 589,-412.5 589,-418.5 589,-418.5 589,-459 589,-459 589,-465 583,-471 577,-471 577,-471 431,-471 431,-471 425,-471 419,-465 419,-459 419,-459 419,-418.5 419,-418.5 419,-412.5 425,-406.5 431,-406.5"/>
<text text-anchor="middle" x="504" y="-457.5" font-family="JetBrains Mono" font-size="10.00">[0x55a02093ffd0]</text>
<polyline fill="none" stroke="gray" points="419,-449.5 589,-449.5"/>
<text text-anchor="middle" x="504" y="-436" font-family="JetBrains Mono" font-size="10.00">data = [200]</text>
<polyline fill="none" stroke="gray" points="419,-428 589,-428"/>
<text text-anchor="middle" x="448" y="-414.5" font-family="JetBrains Mono" font-size="10.00">[(nil)]</text>
<polyline fill="none" stroke="gray" points="477,-406.5 477,-428"/>
<text text-anchor="middle" x="533" y="-414.5" font-family="JetBrains Mono" font-size="10.00">[0x55a020940510]</text>
</g>
<!-- p0x55a02093f2b0&#45;&gt;p0x55a02093ffd0 -->
<g id="edge7" class="edge">
<title>p0x55a02093f2b0:r&#45;&gt;p0x55a02093ffd0</title>
<path fill="none" stroke="green" stroke-width="2" stroke-dasharray="5,2" d="M455.5,-507.63C455.5,-507.63 455.5,-478.22 455.5,-478.22"/>
<polygon fill="green" stroke="green" stroke-width="2" points="456.9,-478.22 455.5,-474.22 454.1,-478.22 456.9,-478.22"/>
</g>
<!-- p0x55a0209413c0 -->
<g id="node3" class="node">
<title>p0x55a0209413c0</title>
<path fill="none" stroke="gray" d="M14,-305C14,-305 160,-305 160,-305 166,-305 172,-311 172,-317 172,-317 172,-357.5 172,-357.5 172,-363.5 166,-369.5 160,-369.5 160,-369.5 14,-369.5 14,-369.5 8,-369.5 2,-363.5 2,-357.5 2,-357.5 2,-317 2,-317 2,-311 8,-305 14,-305"/>
<text text-anchor="middle" x="87" y="-356" font-family="JetBrains Mono" font-size="10.00">[0x55a0209413c0]</text>
<polyline fill="none" stroke="gray" points="2,-348 172,-348"/>
<text text-anchor="middle" x="87" y="-334.5" font-family="JetBrains Mono" font-size="10.00">data = [11]</text>
<polyline fill="none" stroke="gray" points="2,-326.5 172,-326.5"/>
<text text-anchor="middle" x="58" y="-313" font-family="JetBrains Mono" font-size="10.00">[0x55a0209413f0]</text>
<polyline fill="none" stroke="gray" points="114,-305 114,-326.5"/>
<text text-anchor="middle" x="143" y="-313" font-family="JetBrains Mono" font-size="10.00">[(nil)]</text>
</g>
<!-- p0x55a020940270&#45;&gt;p0x55a0209413c0 -->
<g id="edge2" class="edge">
<title>p0x55a020940270:l&#45;&gt;p0x55a0209413c0</title>
<path fill="none" stroke="green" stroke-width="2" stroke-dasharray="5,2" d="M158.5,-406.13C158.5,-406.13 158.5,-376.72 158.5,-376.72"/>
<polygon fill="green" stroke="green" stroke-width="2" points="159.9,-376.72 158.5,-372.72 157.1,-376.72 159.9,-376.72"/>
</g>
<!-- p0x55a020940a50 -->
<g id="node5" class="node">
<title>p0x55a020940a50</title>
<path fill="none" stroke="gray" d="M213,-305C213,-305 413,-305 413,-305 419,-305 425,-311 425,-317 425,-317 425,-357.5 425,-357.5 425,-363.5 419,-369.5 413,-369.5 413,-369.5 213,-369.5 213,-369.5 207,-369.5 201,-363.5 201,-357.5 201,-357.5 201,-317 201,-317 201,-311 207,-305 213,-305"/>
<text text-anchor="middle" x="313" y="-356" font-family="JetBrains Mono" font-size="10.00">[0x55a020940a50]</text>
<polyline fill="none" stroke="gray" points="201,-348 425,-348"/>
<text text-anchor="middle" x="313" y="-334.5" font-family="JetBrains Mono" font-size="10.00">data = [50]</text>
<polyline fill="none" stroke="gray" points="201,-326.5 425,-326.5"/>
<text text-anchor="middle" x="257" y="-313" font-family="JetBrains Mono" font-size="10.00">[0x55a020940af0]</text>
<polyline fill="none" stroke="gray" points="313,-305 313,-326.5"/>
<text text-anchor="middle" x="369" y="-313" font-family="JetBrains Mono" font-size="10.00">[0x55a020940b90]</text>
</g>
<!-- p0x55a020940270&#45;&gt;p0x55a020940a50 -->
<g id="edge4" class="edge">
<title>p0x55a020940270:r&#45;&gt;p0x55a020940a50</title>
<path fill="none" stroke="green" stroke-width="2" stroke-dasharray="5,2" d="M285,-406.13C285,-406.13 285,-376.72 285,-376.72"/>
<polygon fill="green" stroke="green" stroke-width="2" points="286.4,-376.72 285,-372.72 283.6,-376.72 286.4,-376.72"/>
</g>
<!-- p0x55a0209413f0 -->
<g id="node4" class="node">
<title>p0x55a0209413f0</title>
<path fill="none" stroke="gray" d="M12,-203.5C12,-203.5 104,-203.5 104,-203.5 110,-203.5 116,-209.5 116,-215.5 116,-215.5 116,-256 116,-256 116,-262 110,-268 104,-268 104,-268 12,-268 12,-268 6,-268 0,-262 0,-256 0,-256 0,-215.5 0,-215.5 0,-209.5 6,-203.5 12,-203.5"/>
<text text-anchor="middle" x="58" y="-254.5" font-family="JetBrains Mono" font-size="10.00">[0x55a0209413f0]</text>
<polyline fill="none" stroke="gray" points="0,-246.5 116,-246.5"/>
<text text-anchor="middle" x="58" y="-233" font-family="JetBrains Mono" font-size="10.00">data = [2]</text>
<polyline fill="none" stroke="gray" points="0,-225 116,-225"/>
<text text-anchor="middle" x="29" y="-211.5" font-family="JetBrains Mono" font-size="10.00">[(nil)]</text>
<polyline fill="none" stroke="gray" points="58,-203.5 58,-225"/>
<text text-anchor="middle" x="87" y="-211.5" font-family="JetBrains Mono" font-size="10.00">[(nil)]</text>
</g>
<!-- p0x55a0209413c0&#45;&gt;p0x55a0209413f0 -->
<g id="edge3" class="edge">
<title>p0x55a0209413c0:l&#45;&gt;p0x55a0209413f0</title>
<path fill="none" stroke="green" stroke-width="2" stroke-dasharray="5,2" d="M59,-304.63C59,-304.63 59,-275.22 59,-275.22"/>
<polygon fill="green" stroke="green" stroke-width="2" points="60.4,-275.22 59,-271.22 57.6,-275.22 60.4,-275.22"/>
</g>
<!-- p0x55a020940af0 -->
<g id="node6" class="node">
<title>p0x55a020940af0</title>
<path fill="none" stroke="gray" d="M178,-203.5C178,-203.5 270,-203.5 270,-203.5 276,-203.5 282,-209.5 282,-215.5 282,-215.5 282,-256 282,-256 282,-262 276,-268 270,-268 270,-268 178,-268 178,-268 172,-268 166,-262 166,-256 166,-256 166,-215.5 166,-215.5 166,-209.5 172,-203.5 178,-203.5"/>
<text text-anchor="middle" x="224" y="-254.5" font-family="JetBrains Mono" font-size="10.00">[0x55a020940af0]</text>
<polyline fill="none" stroke="gray" points="166,-246.5 282,-246.5"/>
<text text-anchor="middle" x="224" y="-233" font-family="JetBrains Mono" font-size="10.00">data = [37]</text>
<polyline fill="none" stroke="gray" points="166,-225 282,-225"/>
<text text-anchor="middle" x="195" y="-211.5" font-family="JetBrains Mono" font-size="10.00">[(nil)]</text>
<polyline fill="none" stroke="gray" points="224,-203.5 224,-225"/>
<text text-anchor="middle" x="253" y="-211.5" font-family="JetBrains Mono" font-size="10.00">[(nil)]</text>
</g>
<!-- p0x55a020940a50&#45;&gt;p0x55a020940af0 -->
<g id="edge5" class="edge">
<title>p0x55a020940a50:l&#45;&gt;p0x55a020940af0</title>
<path fill="none" stroke="green" stroke-width="2" stroke-dasharray="5,2" d="M241.5,-304.63C241.5,-304.63 241.5,-275.22 241.5,-275.22"/>
<polygon fill="green" stroke="green" stroke-width="2" points="242.9,-275.22 241.5,-271.22 240.1,-275.22 242.9,-275.22"/>
</g>
<!-- p0x55a020940b90 -->
<g id="node7" class="node">
<title>p0x55a020940b90</title>
<path fill="none" stroke="gray" d="M323,-203.5C323,-203.5 415,-203.5 415,-203.5 421,-203.5 427,-209.5 427,-215.5 427,-215.5 427,-256 427,-256 427,-262 421,-268 415,-268 415,-268 323,-268 323,-268 317,-268 311,-262 311,-256 311,-256 311,-215.5 311,-215.5 311,-209.5 317,-203.5 323,-203.5"/>
<text text-anchor="middle" x="369" y="-254.5" font-family="JetBrains Mono" font-size="10.00">[0x55a020940b90]</text>
<polyline fill="none" stroke="gray" points="311,-246.5 427,-246.5"/>
<text text-anchor="middle" x="369" y="-233" font-family="JetBrains Mono" font-size="10.00">data = [98]</text>
<polyline fill="none" stroke="gray" points="311,-225 427,-225"/>
<text text-anchor="middle" x="340" y="-211.5" font-family="JetBrains Mono" font-size="10.00">[(nil)]</text>
<polyline fill="none" stroke="gray" points="369,-203.5 369,-225"/>
<text text-anchor="middle" x="398" y="-211.5" font-family="JetBrains Mono" font-size="10.00">[(nil)]</text>
</g>
<!-- p0x55a020940a50&#45;&gt;p0x55a020940b90 -->
<g id="edge6" class="edge">
<title>p0x55a020940a50:r&#45;&gt;p0x55a020940b90</title>
<path fill="none" stroke="green" stroke-width="2" stroke-dasharray="5,2" d="M368,-304.63C368,-304.63 368,-275.22 368,-275.22"/>
<polygon fill="green" stroke="green" stroke-width="2" points="369.4,-275.22 368,-271.22 366.6,-275.22 369.4,-275.22"/>
</g>
<!-- p0x55a020940510 -->
<g id="node9" class="node">
<title>p0x55a020940510</title>
<path fill="none" stroke="gray" d="M481,-305C481,-305 627,-305 627,-305 633,-305 639,-311 639,-317 639,-317 639,-357.5 639,-357.5 639,-363.5 633,-369.5 627,-369.5 627,-369.5 481,-369.5 481,-369.5 475,-369.5 469,-363.5 469,-357.5 469,-357.5 469,-317 469,-317 469,-311 475,-305 481,-305"/>
<text text-anchor="middle" x="554" y="-356" font-family="JetBrains Mono" font-size="10.00">[0x55a020940510]</text>
<polyline fill="none" stroke="gray" points="469,-348 639,-348"/>
<text text-anchor="middle" x="554" y="-334.5" font-family="JetBrains Mono" font-size="10.00">data = [1488]</text>
<polyline fill="none" stroke="gray" points="469,-326.5 639,-326.5"/>
<text text-anchor="middle" x="525" y="-313" font-family="JetBrains Mono" font-size="10.00">[0x55a0209407b0]</text>
<polyline fill="none" stroke="gray" points="581,-305 581,-326.5"/>
<text text-anchor="middle" x="610" y="-313" font-family="JetBrains Mono" font-size="10.00">[(nil)]</text>
</g>
<!-- p0x55a02093ffd0&#45;&gt;p0x55a020940510 -->
<g id="edge8" class="edge">
<title>p0x55a02093ffd0:r&#45;&gt;p0x55a020940510</title>
<path fill="none" stroke="green" stroke-width="2" stroke-dasharray="5,2" d="M529,-406.13C529,-406.13 529,-376.72 529,-376.72"/>
<polygon fill="green" stroke="green" stroke-width="2" points="530.4,-376.72 529,-372.72 527.6,-376.72 530.4,-376.72"/>
</g>
<!-- p0x55a0209407b0 -->
<g id="node10" class="node">
<title>p0x55a0209407b0</title>
<path fill="none" stroke="gray" d="M468,-203.5C468,-203.5 614,-203.5 614,-203.5 620,-203.5 626,-209.5 626,-215.5 626,-215.5 626,-256 626,-256 626,-262 620,-268 614,-268 614,-268 468,-268 468,-268 462,-268 456,-262 456,-256 456,-256 456,-215.5 456,-215.5 456,-209.5 462,-203.5 468,-203.5"/>
<text text-anchor="middle" x="541" y="-254.5" font-family="JetBrains Mono" font-size="10.00">[0x55a0209407b0]</text>
<polyline fill="none" stroke="gray" points="456,-246.5 626,-246.5"/>
<text text-anchor="middle" x="541" y="-233" font-family="JetBrains Mono" font-size="10.00">data = [228]</text>
<polyline fill="none" stroke="gray" points="456,-225 626,-225"/>
<text text-anchor="middle" x="485" y="-211.5" font-family="JetBrains Mono" font-size="10.00">[(nil)]</text>
<polyline fill="none" stroke="gray" points="514,-203.5 514,-225"/>
<text text-anchor="middle" x="570" y="-211.5" font-family="JetBrains Mono" font-size="10.00">[0x55a020941360]</text>
</g>
<!-- p0x55a020940510&#45;&gt;p0x55a0209407b0 -->
<g id="edge9" class="edge">
<title>p0x55a020940510:l&#45;&gt;p0x55a0209407b0</title>
<path fill="none" stroke="green" stroke-width="2" stroke-dasharray="5,2" d="M547.5,-304.63C547.5,-304.63 547.5,-275.22 547.5,-275.22"/>
<polygon fill="green" stroke="green" stroke-width="2" points="548.9,-275.22 547.5,-271.22 546.1,-275.22 548.9,-275.22"/>
</g>
<!-- p0x55a020941360 -->
<g id="node11" class="node">
<title>p0x55a020941360</title>
<path fill="none" stroke="gray" d="M497,-102C497,-102 643,-102 643,-102 649,-102 655,-108 655,-114 655,-114 655,-154.5 655,-154.5 655,-160.5 649,-166.5 643,-166.5 643,-166.5 497,-166.5 497,-166.5 491,-166.5 485,-160.5 485,-154.5 485,-154.5 485,-114 485,-114 485,-108 491,-102 497,-102"/>
<text text-anchor="middle" x="570" y="-153" font-family="JetBrains Mono" font-size="10.00">[0x55a020941360]</text>
<polyline fill="none" stroke="gray" points="485,-145 655,-145"/>
<text text-anchor="middle" x="570" y="-131.5" font-family="JetBrains Mono" font-size="10.00">data = [1002]</text>
<polyline fill="none" stroke="gray" points="485,-123.5 655,-123.5"/>
<text text-anchor="middle" x="514" y="-110" font-family="JetBrains Mono" font-size="10.00">[(nil)]</text>
<polyline fill="none" stroke="gray" points="543,-102 543,-123.5"/>
<text text-anchor="middle" x="599" y="-110" font-family="JetBrains Mono" font-size="10.00">[0x55a020941390]</text>
</g>
<!-- p0x55a0209407b0&#45;&gt;p0x55a020941360 -->
<g id="edge10" class="edge">
<title>p0x55a0209407b0:r&#45;&gt;p0x55a020941360</title>
<path fill="none" stroke="green" stroke-width="2" stroke-dasharray="5,2" d="M555.5,-203.13C555.5,-203.13 555.5,-173.72 555.5,-173.72"/>
<polygon fill="green" stroke="green" stroke-width="2" points="556.9,-173.72 555.5,-169.72 554.1,-173.72 556.9,-173.72"/>
</g>
<!-- p0x55a020941390 -->
<g id="node12" class="node">
<title>p0x55a020941390</title>
<path fill="none" stroke="gray" d="M553,-0.5C553,-0.5 645,-0.5 645,-0.5 651,-0.5 657,-6.5 657,-12.5 657,-12.5 657,-53 657,-53 657,-59 651,-65 645,-65 645,-65 553,-65 553,-65 547,-65 541,-59 541,-53 541,-53 541,-12.5 541,-12.5 541,-6.5 547,-0.5 553,-0.5"/>
<text text-anchor="middle" x="599" y="-51.5" font-family="JetBrains Mono" font-size="10.00">[0x55a020941390]</text>
<polyline fill="none" stroke="gray" points="541,-43.5 657,-43.5"/>
<text text-anchor="middle" x="599" y="-30" font-family="JetBrains Mono" font-size="10.00">data = [1323]</text>
<polyline fill="none" stroke="gray" points="541,-22 657,-22"/>
<text text-anchor="middle" x="570" y="-8.5" font-family="JetBrains Mono" font-size="10.00">[(nil)]</text>
<polyline fill="none" stroke="gray" points="599,-0.5 599,-22"/>
<text text-anchor="middle" x="628" y="-8.5" font-family="JetBrains Mono" font-size="10.00">[(nil)]</text>
</g>
<!-- p0x55a020941360&#45;&gt;p0x55a020941390 -->
<g id="edge11" class="edge">
<title>p0x55a020941360:r&#45;&gt;p0x55a020941390</title>
<path fill="none" stroke="green" stroke-width="2" stroke-dasharray="5,2" d="M598,-101.63C598,-101.63 598,-72.22 598,-72.22"/>
<polygon fill="green" stroke="green" stroke-width="2" points="599.4,-72.22 598,-68.22 596.6,-72.22 599.4,-72.22"/>
</g>
</g>
</svg>
