<?xml version="1.0" encoding="UTF-8" standalone="no"?>
<!DOCTYPE svg PUBLIC "-//W3C//DTD SVG 1.1//EN"
 "http://www.w3.org/Graphics/SVG/1.1/DTD/svg11.dtd">
<!-- Generated by graphviz version 12.1.2 (0)
 -->
<!-- Title: binaryTree Pages: 1 -->
<svg width="209pt" height="277pt"
 viewBox="0.00 0.00 209.00 276.50" xmlns="http://www.w3.org/2000/svg" xmlns:xlink="http://www.w3.org/1999/xlink">
<g id="graph0" class="graph" transform="scale(1 1) rotate(0) translate(4 272.5)">
<title>binaryTree</title>
<polygon fill="white" stroke="none" points="-4,4 -4,-272.5 205,-272.5 205,4 -4,4"/>
<!-- p0x59f1ee9782b0 -->
<g id="node1" class="node">
<title>p0x59f1ee9782b0</title>
<path fill="none" stroke="gray" d="M43,-203.5C43,-203.5 189,-203.5 189,-203.5 195,-203.5 201,-209.5 201,-215.5 201,-215.5 201,-256 201,-256 201,-262 195,-268 189,-268 189,-268 43,-268 43,-268 37,-268 31,-262 31,-256 31,-256 31,-215.5 31,-215.5 31,-209.5 37,-203.5 43,-203.5"/>
<text text-anchor="middle" x="116" y="-254.5" font-family="JetBrains Mono" font-size="10.00">[0x59f1ee9782b0]</text>
<polyline fill="none" stroke="gray" points="31,-246.5 201,-246.5"/>
<text text-anchor="middle" x="116" y="-233" font-family="JetBrains Mono" font-size="10.00">data = [0]</text>
<polyline fill="none" stroke="gray" points="31,-225 201,-225"/>
<text text-anchor="middle" x="87" y="-211.5" font-family="JetBrains Mono" font-size="10.00">[0x59f1ee978d60]</text>
<polyline fill="none" stroke="gray" points="143,-203.5 143,-225"/>
<text text-anchor="middle" x="172" y="-211.5" font-family="JetBrains Mono" font-size="10.00">[(nil)]</text>
</g>
<!-- p0x59f1ee978d60 -->
<g id="node2" class="node">
<title>p0x59f1ee978d60</title>
<path fill="none" stroke="gray" d="M14,-102C14,-102 160,-102 160,-102 166,-102 172,-108 172,-114 172,-114 172,-154.5 172,-154.5 172,-160.5 166,-166.5 160,-166.5 160,-166.5 14,-166.5 14,-166.5 8,-166.5 2,-160.5 2,-154.5 2,-154.5 2,-114 2,-114 2,-108 8,-102 14,-102"/>
<text text-anchor="middle" x="87" y="-153" font-family="JetBrains Mono" font-size="10.00">[0x59f1ee978d60]</text>
<polyline fill="none" stroke="gray" points="2,-145 172,-145"/>
<text text-anchor="middle" x="87" y="-131.5" font-family="JetBrains Mono" font-size="10.00">data = [228]</text>
<polyline fill="none" stroke="gray" points="2,-123.5 172,-123.5"/>
<text text-anchor="middle" x="58" y="-110" font-family="JetBrains Mono" font-size="10.00">[0x59f1ee979270]</text>
<polyline fill="none" stroke="gray" points="114,-102 114,-123.5"/>
<text text-anchor="middle" x="143" y="-110" font-family="JetBrains Mono" font-size="10.00">[(nil)]</text>
</g>
<!-- p0x59f1ee9782b0&#45;&gt;p0x59f1ee978d60 -->
<g id="edge1" class="edge">
<title>p0x59f1ee9782b0:l&#45;&gt;p0x59f1ee978d60</title>
<path fill="none" stroke="green" stroke-width="2" stroke-dasharray="5,2" d="M101.5,-203.13C101.5,-203.13 101.5,-173.72 101.5,-173.72"/>
<polygon fill="green" stroke="green" stroke-width="2" points="102.9,-173.72 101.5,-169.72 100.1,-173.72 102.9,-173.72"/>
</g>
<!-- p0x59f1ee979270 -->
<g id="node3" class="node">
<title>p0x59f1ee979270</title>
<path fill="none" stroke="gray" d="M12,-0.5C12,-0.5 104,-0.5 104,-0.5 110,-0.5 116,-6.5 116,-12.5 116,-12.5 116,-53 116,-53 116,-59 110,-65 104,-65 104,-65 12,-65 12,-65 6,-65 0,-59 0,-53 0,-53 0,-12.5 0,-12.5 0,-6.5 6,-0.5 12,-0.5"/>
<text text-anchor="middle" x="58" y="-51.5" font-family="JetBrains Mono" font-size="10.00">[0x59f1ee979270]</text>
<polyline fill="none" stroke="gray" points="0,-43.5 116,-43.5"/>
<text text-anchor="middle" x="58" y="-30" font-family="JetBrains Mono" font-size="10.00">data = [0]</text>
<polyline fill="none" stroke="gray" points="0,-22 116,-22"/>
<text text-anchor="middle" x="29" y="-8.5" font-family="JetBrains Mono" font-size="10.00">[(nil)]</text>
<polyline fill="none" stroke="gray" points="58,-0.5 58,-22"/>
<text text-anchor="middle" x="87" y="-8.5" font-family="JetBrains Mono" font-size="10.00">[(nil)]</text>
</g>
<!-- p0x59f1ee978d60&#45;&gt;p0x59f1ee979270 -->
<g id="edge2" class="edge">
<title>p0x59f1ee978d60:l&#45;&gt;p0x59f1ee979270</title>
<path fill="none" stroke="green" stroke-width="2" stroke-dasharray="5,2" d="M59,-101.63C59,-101.63 59,-72.22 59,-72.22"/>
<polygon fill="green" stroke="green" stroke-width="2" points="60.4,-72.22 59,-68.22 57.6,-72.22 60.4,-72.22"/>
</g>
</g>
</svg>
